<svg width="20" height="20" viewBox="0 0 20 20" fill="none" xmlns="http://www.w3.org/2000/svg">
<path fill-rule="evenodd" clip-rule="evenodd" d="M10 1.75C5.44321 1.75 1.75 5.44321 1.75 10C1.75 14.5568 5.44321 18.25 10 18.25C14.5568 18.25 18.25 14.5568 18.25 10C18.25 5.44321 14.5568 1.75 10 1.75ZM0.25 10C0.25 4.61479 4.61479 0.25 10 0.25C15.3852 0.25 19.75 4.61479 19.75 10C19.75 15.3852 15.3852 19.75 10 19.75C4.61479 19.75 0.25 15.3852 0.25 10ZM10 5.25C10.4142 5.25 10.75 5.58579 10.75 6V7C10.75 7.41421 10.4142 7.75 10 7.75C9.58579 7.75 9.25 7.41421 9.25 7V6C9.25 5.58579 9.58579 5.25 10 5.25ZM10 9.25C10.4142 9.25 10.75 9.58579 10.75 10V15C10.75 15.4142 10.4142 15.75 10 15.75C9.58579 15.75 9.25 15.4142 9.25 15V10C9.25 9.58579 9.58579 9.25 10 9.25Z" fill="#1D2452"/>
</svg>
